<svg xmlns="http://www.w3.org/2000/svg" width="61" height="38.905" viewBox="0 0 61 38.905">
  <g id="Forma_1" data-name="Forma 1" transform="translate(-964 -404.095)">
    <g id="Forma_1-2" data-name="Forma 1" transform="translate(964 404)">
      <path id="Forma_1-3" data-name="Forma 1" d="M34.727,32.516H2.542a2.594,2.594,0,0,1,0-5.187H34.727a8.789,8.789,0,0,1,16.963,0h6.769a2.594,2.594,0,0,1,0,5.187H51.69a8.789,8.789,0,0,1-16.963,0ZM39.4,29.922a3.813,3.813,0,1,0,3.812-3.89A3.857,3.857,0,0,0,39.4,29.922ZM9.31,11.766H2.542a2.594,2.594,0,0,1,0-5.187H9.31A8.907,8.907,0,0,1,17.792.1a8.907,8.907,0,0,1,8.482,6.484H58.458a2.594,2.594,0,0,1,0,5.187H26.273a8.907,8.907,0,0,1-8.481,6.484A8.907,8.907,0,0,1,9.31,11.766Zm4.669-2.594a3.813,3.813,0,1,0,3.813-3.891A3.857,3.857,0,0,0,13.979,9.173Z" fill="#ebf3fb"/>
    </g>
    <path id="Color_Overlay" data-name="Color Overlay" d="M998.726,436.516H966.542a2.594,2.594,0,0,1,0-5.188h32.185a8.789,8.789,0,0,1,16.963,0h6.769a2.594,2.594,0,0,1,0,5.188h-6.769a8.789,8.789,0,0,1-16.963,0Zm4.669-2.594a3.813,3.813,0,1,0,3.812-3.891A3.857,3.857,0,0,0,1003.4,433.922ZM973.31,415.767h-6.769a2.594,2.594,0,0,1,0-5.188h6.769a8.789,8.789,0,0,1,16.963,0h32.185a2.594,2.594,0,0,1,0,5.188H990.273a8.789,8.789,0,0,1-16.962,0Zm4.668-2.594a3.814,3.814,0,1,0,3.813-3.891A3.858,3.858,0,0,0,977.979,413.173Z" fill="#92a3b4"/>
  </g>
</svg>
