<svg xmlns="http://www.w3.org/2000/svg" width="91" height="90" viewBox="0 0 91 90"><g transform="translate(-101 -2598)"><g fill="none" stroke-linecap="round" stroke-linejoin="round"><path d="M158,2688a8.1,8.1,0,0,1-8-8.2V2654.2a8.1,8.1,0,0,1,8-8.2h26a8.1,8.1,0,0,1,8,8.2V2679.8a8.1,8.1,0,0,1-8,8.2Zm-49,0a8.1,8.1,0,0,1-8-8.2V2654.2a8.1,8.1,0,0,1,8-8.2h26a8.1,8.1,0,0,1,8,8.2V2679.8a8.1,8.1,0,0,1-8,8.2Zm49-48a8.1,8.1,0,0,1-8-8.2v-25.61a8.1,8.1,0,0,1,8-8.195h26a8.1,8.1,0,0,1,8,8.195v25.61a8.1,8.1,0,0,1-8,8.2Zm-49,0a8.1,8.1,0,0,1-8-8.2v-25.61a8.1,8.1,0,0,1,8-8.195h26a8.1,8.1,0,0,1,8,8.195v25.61a8.1,8.1,0,0,1-8,8.2Z" stroke="none"/><path d="M 183.9996032714844 2681.000244140625 C 184.5417175292969 2681.000244140625 184.9997100830078 2680.452880859375 184.9997100830078 2679.804931640625 L 184.9997100830078 2654.195556640625 C 184.9997100830078 2653.547607421875 184.5417175292969 2653 183.9996032714844 2653 L 158.0003967285156 2653 C 157.4582824707031 2653 157.0002899169922 2653.547607421875 157.0002899169922 2654.195556640625 L 157.0002899169922 2679.804931640625 C 157.0002899169922 2680.452880859375 157.4582824707031 2681.000244140625 158.0003967285156 2681.000244140625 L 183.9996032714844 2681.000244140625 M 135 2681.000244140625 C 135.5421142578125 2681.000244140625 136.0001220703125 2680.452880859375 136.0001220703125 2679.804931640625 L 136.0001220703125 2654.195556640625 C 136.0001220703125 2653.547607421875 135.5421142578125 2653 135 2653 L 108.9998931884766 2653 C 108.4577789306641 2653 107.9997940063477 2653.547607421875 107.9997940063477 2654.195556640625 L 107.9997940063477 2679.804931640625 C 107.9997940063477 2680.452880859375 108.4577789306641 2681.000244140625 108.9998931884766 2681.000244140625 L 135 2681.000244140625 M 183.9996032714844 2632.999755859375 C 184.5417175292969 2632.999755859375 184.9997100830078 2632.452392578125 184.9997100830078 2631.804443359375 L 184.9997100830078 2606.19482421875 C 184.9997100830078 2605.54736328125 184.5417175292969 2605.000244140625 183.9996032714844 2605.000244140625 L 158.0003967285156 2605.000244140625 C 157.4582824707031 2605.000244140625 157.0002899169922 2605.54736328125 157.0002899169922 2606.19482421875 L 157.0002899169922 2631.804443359375 C 157.0002899169922 2632.452392578125 157.4582824707031 2632.999755859375 158.0003967285156 2632.999755859375 L 183.9996032714844 2632.999755859375 M 135 2632.999755859375 C 135.5421142578125 2632.999755859375 136.0001220703125 2632.452392578125 136.0001220703125 2631.804443359375 L 136.0001220703125 2606.19482421875 C 136.0001220703125 2605.54736328125 135.5421142578125 2605.000244140625 135 2605.000244140625 L 108.9998931884766 2605.000244140625 C 108.4577789306641 2605.000244140625 107.9997940063477 2605.54736328125 107.9997940063477 2606.19482421875 L 107.9997940063477 2631.804443359375 C 107.9997940063477 2632.452392578125 108.4577789306641 2632.999755859375 108.9998931884766 2632.999755859375 L 135 2632.999755859375 M 183.9996032714844 2688.000244140625 L 158.0003967285156 2688.000244140625 C 153.5814208984375 2688.000244140625 150.0002899169922 2684.3310546875 150.0002899169922 2679.804931640625 L 150.0002899169922 2654.195556640625 C 150.0002899169922 2649.66943359375 153.5814208984375 2646 158.0003967285156 2646 L 183.9996032714844 2646 C 188.4186096191406 2646 191.9997100830078 2649.66943359375 191.9997100830078 2654.195556640625 L 191.9997100830078 2679.804931640625 C 191.9997100830078 2684.3310546875 188.4186096191406 2688.000244140625 183.9996032714844 2688.000244140625 Z M 135 2688.000244140625 L 108.9998931884766 2688.000244140625 C 104.5817947387695 2688.000244140625 100.9997940063477 2684.3310546875 100.9997940063477 2679.804931640625 L 100.9997940063477 2654.195556640625 C 100.9997940063477 2649.66943359375 104.5817947387695 2646 108.9998931884766 2646 L 135 2646 C 139.4181213378906 2646 143.0001220703125 2649.66943359375 143.0001220703125 2654.195556640625 L 143.0001220703125 2679.804931640625 C 143.0001220703125 2684.3310546875 139.4181213378906 2688.000244140625 135 2688.000244140625 Z M 183.9996032714844 2639.999755859375 L 158.0003967285156 2639.999755859375 C 153.5814208984375 2639.999755859375 150.0002899169922 2636.33056640625 150.0002899169922 2631.804443359375 L 150.0002899169922 2606.19482421875 C 150.0002899169922 2601.668701171875 153.5814208984375 2598.000244140625 158.0003967285156 2598.000244140625 L 183.9996032714844 2598.000244140625 C 188.4186096191406 2598.000244140625 191.9997100830078 2601.668701171875 191.9997100830078 2606.19482421875 L 191.9997100830078 2631.804443359375 C 191.9997100830078 2636.33056640625 188.4186096191406 2639.999755859375 183.9996032714844 2639.999755859375 Z M 135 2639.999755859375 L 108.9998931884766 2639.999755859375 C 104.5817947387695 2639.999755859375 100.9997940063477 2636.33056640625 100.9997940063477 2631.804443359375 L 100.9997940063477 2606.19482421875 C 100.9997940063477 2601.668701171875 104.5817947387695 2598.000244140625 108.9998931884766 2598.000244140625 L 135 2598.000244140625 C 139.4181213378906 2598.000244140625 143.0001220703125 2601.668701171875 143.0001220703125 2606.19482421875 L 143.0001220703125 2631.804443359375 C 143.0001220703125 2636.33056640625 139.4181213378906 2639.999755859375 135 2639.999755859375 Z" stroke="none" fill="#A0AFBE"/></g></g></svg>