<svg xmlns="http://www.w3.org/2000/svg" width="102" height="93.998" viewBox="0 0 102 93.998"><g transform="translate(-389 -2597.002)"><path d="M404.938,2691A15.957,15.957,0,0,1,389,2675.061V2664.9a3.985,3.985,0,0,1,3.191-3.905,5.979,5.979,0,0,0,0-11.714,3.983,3.983,0,0,1-3.191-3.9v-18.51a15.938,15.938,0,0,1,12.453-15.553l62.316-13.964.023-.006a15.021,15.021,0,0,1,16.879,8.568,3.985,3.985,0,0,1-7.289,3.221,7.024,7.024,0,0,0-7.887-4l-62.3,13.962a8.035,8.035,0,0,0-1.619.546,15.906,15.906,0,0,1,3.361-.36h70.124A15.956,15.956,0,0,1,491,2635.214v10.162a3.983,3.983,0,0,1-3.191,3.9,5.979,5.979,0,0,0,0,11.714A3.985,3.985,0,0,1,491,2664.9v10.161A15.956,15.956,0,0,1,475.062,2691Zm57.773-7.969h12.352a7.978,7.978,0,0,0,7.969-7.969v-7.322a13.948,13.948,0,0,1,0-25.2v-7.322a7.978,7.978,0,0,0-7.969-7.969H462.711a3.984,3.984,0,1,1-7.969,0h-49.8a7.978,7.978,0,0,0-7.969,7.969v7.322a13.947,13.947,0,0,1,0,25.2v7.322a7.978,7.978,0,0,0,7.969,7.969h49.8a3.984,3.984,0,0,1,7.969,0Zm-7.961-13.951a3.98,3.98,0,1,1,3.98,3.981A3.98,3.98,0,0,1,454.75,2669.08Zm-39.852-9.957a3.985,3.985,0,0,1,0-7.969h18.328a3.985,3.985,0,0,1,0,7.969Zm39.852-3.983a3.98,3.98,0,1,1,3.98,3.981A3.98,3.98,0,0,1,454.75,2655.14Zm-39.852-9.963a3.984,3.984,0,1,1,0-7.969h27.891a3.984,3.984,0,1,1,0,7.969Zm39.852-3.987a3.98,3.98,0,1,1,3.98,3.981A3.98,3.98,0,0,1,454.75,2641.189Z" fill="#a0afbe"/></g></svg>